<svg width="314" height="66" viewBox="0 0 314 66" fill="none" xmlns="http://www.w3.org/2000/svg">
<path d="M39.7754 44.7108C40.808 45.1961 44.3394 46.7759 45.403 47.189C48.6108 48.5928 52.0541 49.3809 55.5532 49.5123C59.6437 49.6845 63.6894 48.6038 67.1491 46.4145C70.0287 44.6202 72.4589 42.19 74.2532 39.3104C74.0805 39.0893 73.8906 38.8821 73.6853 38.6908C67.717 33.9616 61.1291 33.2182 54.0663 35.5931C50.4331 36.8789 47.0356 38.7521 44.009 41.1381C42.8628 41.9951 41.7889 42.9554 40.6737 43.8641L39.7754 44.7108Z" fill="#D4D626"/>
<path d="M33.5795 43.8538C32.4746 42.9451 31.3904 41.9848 30.2443 41.1278C27.2177 38.7418 23.8201 36.8686 20.1869 35.5828C13.0931 33.2492 6.49493 33.9926 0.567918 38.6805C0.362655 38.8718 0.172763 39.079 0 39.3001C1.77806 42.1988 4.19796 44.6505 7.07317 46.4662C10.5329 48.6554 14.5785 49.7362 18.669 49.5639C22.1682 49.4326 25.6114 48.6445 28.8193 47.2406C29.8519 46.7863 33.5795 45.2478 34.6534 44.7624L33.5795 43.8538Z" fill="#D4D626"/>
<path d="M18.6384 53.7561C17.1571 54.7493 15.8312 55.9568 14.7043 57.3392C10.9354 61.4695 12.5462 65.29 12.5462 65.29C12.5462 65.29 17.2032 67.1487 24.6687 62.5537C28.991 58.9369 32.8418 54.7913 36.1303 50.2144C36.1303 50.2144 28.9023 53.3121 24.4519 53.9833C22.5181 54.2927 20.5422 54.2155 18.6384 53.7561Z" fill="#D4D626"/>
<path d="M37.0908 43.0792C31.9796 38.0093 29.3465 32.01 30.5856 24.7819C31.1122 21.2198 32.8345 17.9427 35.4697 15.4887C36.7811 14.2909 37.4729 14.3012 38.8049 15.4887C41.0585 17.6117 42.6202 20.3644 43.2863 23.3879C44.6493 28.3237 41.9543 34.3539 40.5809 37.1729C39.533 39.2076 38.3676 41.1797 37.0908 43.0792Z" fill="#D4D626"/>
<path d="M55.6253 53.7561C57.1205 54.743 58.4603 55.9471 59.6007 57.3288C63.3696 61.4591 61.7588 65.2797 61.7588 65.2797C61.7588 65.2797 57.0399 67.1177 49.626 62.5537C45.2892 58.9394 41.4245 54.7938 38.123 50.2144C38.123 50.2144 45.3511 53.3121 49.8015 53.9833C51.7353 54.2927 53.7112 54.2155 55.6149 53.7561" fill="#D4D626"/>
<path d="M53.261 10.4188C49.9774 6.41237 45.7232 12.2568 43.9678 14.9725C45.999 18.0421 47.4805 21.4418 48.3459 25.0195C48.9319 27.2794 49.278 29.5949 49.3785 31.9274C50.6887 29.8214 51.7787 27.5862 52.6311 25.257C54.4794 20.3109 55.4294 13.7127 53.261 10.4188Z" fill="#D4D626"/>
<path d="M25.1844 27.663C25.8792 23.1135 27.591 18.7793 30.1925 14.9829C28.468 12.2672 24.2035 6.40215 20.8992 10.4189C18.7205 13.7128 19.6705 20.311 21.4775 25.2571C22.3136 27.536 23.3756 29.7257 24.6475 31.7933C24.7525 30.4079 24.9318 29.0292 25.1844 27.663Z" fill="#D4D626"/>
<path d="M34.1063 9.75804C36.5019 7.56897 37.7617 7.58962 40.1882 9.75804C41.123 10.6003 41.9897 11.5153 42.78 12.4944C43.8849 6.76356 37.8649 1.23926 36.9976 1.23926C36.1302 1.23926 30.1929 7.80647 31.4836 12.4944C32.2929 11.5222 33.1693 10.6079 34.1063 9.75804Z" fill="#D4D626"/>
<path d="M37.0908 43.0792C31.9796 38.0093 29.3465 32.01 30.5856 24.7819C31.1122 21.2198 32.8345 17.9427 35.4697 15.4887C36.7811 14.2909 37.4729 14.3012 38.8049 15.4887C41.0585 17.6117 42.6202 20.3644 43.2863 23.3879C44.8971 29.9655 43.6064 36.543 37.0908 43.1722C37.2457 42.7591 44.3189 32.2268 41.0869 24.3173C40.6 22.9298 39.676 21.7377 38.4538 20.9201C37.917 20.4959 37.2336 20.3023 36.554 20.3816C35.8744 20.461 35.2542 20.807 34.8295 21.3434C33.9477 22.306 33.2663 23.4344 32.8249 24.663C32.3834 25.8915 32.1909 27.1955 32.2584 28.4992C32.2584 33.7241 34.2409 38.319 36.8327 42.7075L37.0908 43.0792Z" fill="#BEA02F"/>
<path d="M42.1504 45.7537C45.7954 45.9809 49.4508 46.3216 53.0132 46.3629C56.0355 46.4462 59.0431 45.9122 61.852 44.7934C63.6436 44.1509 65.2036 42.9899 66.3334 41.4582C67.366 39.9712 67.1905 39.0213 65.6209 38.0713C63.8117 37.0563 61.7411 36.6033 59.6733 36.7702C54.7892 36.9561 50.3801 38.7115 46.1052 40.9006C44.2982 41.8505 42.5428 42.9038 40.6738 43.8228C41.7787 42.9141 42.8629 41.9538 44.0091 41.0968C47.0357 38.7108 50.4332 36.8376 54.0664 35.5518C61.1602 33.2182 67.7584 33.9616 73.6854 38.6495C73.8907 38.8408 74.0806 39.048 74.2533 39.2691C72.4702 42.1825 70.0391 44.6453 67.1492 46.4662C63.6895 48.6554 59.6438 49.7361 55.5533 49.5639C52.0542 49.4326 48.6109 48.6444 45.403 47.2406C44.3395 46.7346 43.214 46.239 42.1504 45.7537Z" fill="#BEA02F"/>
<path d="M32.3305 45.6814C28.6855 45.9086 24.772 46.3216 21.2096 46.3629C18.1872 46.4462 15.1796 45.9122 12.3707 44.7934C10.5942 44.1437 9.04945 42.9833 7.93063 41.4582C6.89805 39.9712 7.07359 39.0213 8.64311 38.0713C10.4523 37.0563 12.523 36.6033 14.5908 36.7702C19.4749 36.9561 23.884 38.7115 28.1589 40.9006C29.9659 41.8505 31.7213 42.9038 33.5902 43.8228C32.4854 42.9141 31.4012 41.9538 30.255 41.0968C27.2284 38.7108 23.8308 36.8376 20.1977 35.5518C13.1039 33.2182 6.50567 33.9616 0.57866 38.6495C0.373397 38.8408 0.183505 39.048 0.0107422 39.2691C1.7821 42.1779 4.19866 44.6404 7.07359 46.4662C10.5333 48.6554 14.5789 49.7361 18.6695 49.5639C22.1686 49.4326 25.6118 48.6444 28.8197 47.2406C29.8729 46.7346 31.2256 46.1667 32.3305 45.6814Z" fill="#BEA02F"/>
<path d="M18.6386 53.7563C18.5354 54.19 16.5735 59.0637 20.0017 58.4855C26.4553 57.4529 36.1409 50.2249 36.1409 50.2249C36.1409 50.2249 31.6388 58.2893 24.9167 62.781C17.4512 67.376 12.1127 65.7032 12.1127 65.7032C11.7539 64.2008 11.7826 62.6319 12.1962 61.1436C12.6098 59.6554 13.3948 58.2966 14.4774 57.1948C15.6885 55.8509 17.0906 54.6924 18.6386 53.7563Z" fill="#BEA02F"/>
<path d="M55.6253 53.7563C55.7285 54.19 57.6904 59.0637 54.2623 58.4855C47.8086 57.4529 38.123 50.2249 38.123 50.2249C38.123 50.2249 42.5838 58.2893 49.3369 62.781C56.8024 67.376 62.1409 65.7032 62.1409 65.7032C62.4997 64.2008 62.471 62.6319 62.0574 61.1436C61.6438 59.6554 60.8588 58.2966 59.7762 57.1948C58.5683 55.8517 57.1697 54.6932 55.6253 53.7563Z" fill="#BEA02F"/>
<path d="M26.7947 13.1859C24.9051 12.7006 23.697 13.4647 23.0877 15.3234C21.7454 19.5363 24.048 28.3235 24.7089 31.7827C23.4131 29.7282 22.3499 27.536 21.5389 25.2464C19.7422 20.3004 18.7819 13.7022 20.9606 10.4083C24.8741 5.73069 29.7272 14.1875 30.2539 14.9723C29.231 14.1529 28.055 13.5456 26.7947 13.1859Z" fill="#BEA02F"/>
<path d="M47.4265 13.1861C49.3161 12.7008 50.5242 13.4649 51.1335 15.3235C52.4758 19.5364 50.1009 28.4682 49.4194 31.9274C50.7451 29.83 51.8359 27.593 52.672 25.2569C54.4687 20.3109 55.429 13.7127 53.2502 10.4188C49.2232 5.50368 44.494 14.1877 43.957 14.9724C44.9831 14.152 46.1627 13.5447 47.4265 13.1861Z" fill="#BEA02F"/>
<path d="M37.1111 4.8015C39.1763 4.8015 41.4893 7.1248 42.9039 10.6459C42.4805 4.66726 39.0627 0 37.1111 0C35.1596 0 31.7417 4.66726 31.3184 10.6459C32.7227 7.1248 35.0356 4.8015 37.1111 4.8015Z" fill="#BEA02F"/>
<path d="M104.295 36.5297C102.324 35.9632 100.267 35.7538 98.2217 35.9114C98.0833 43.0715 98.3261 50.2339 98.949 57.3682C96.6782 57.0083 94.3604 57.0699 92.1119 57.5501C92.7665 55.1134 92.9847 42.8758 92.8393 36.0933C91.9301 36.0933 91.0209 36.0933 90.2754 36.0933C87.566 35.7296 84.5475 34.4749 85.0566 29.2017C88.5297 32.0201 99.8036 30.0745 104.386 30.4927C104.098 32.4929 104.067 34.5217 104.295 36.5297Z" fill="white"/>
<path d="M125.061 58.3501C121.424 61.8232 115.697 60.9868 115.351 56.0226C115.115 52.895 115.351 49.2219 115.351 45.2942C115.351 41.0574 111.714 41.8211 110.951 47.7308C110.786 50.9059 110.914 54.0893 111.332 57.2409C109.218 57.0536 107.09 57.1024 104.986 57.3864C105.689 48.5313 105.944 39.6463 105.75 30.7654C105.441 27.9833 103.695 26.6013 100.677 26.365C101.579 25.6512 102.659 25.197 103.8 25.0511C104.941 24.9052 106.101 25.0732 107.153 25.5369C108.206 26.0007 109.113 26.7427 109.775 27.6832C110.438 28.6237 110.832 29.727 110.914 30.8745C111.151 33.6566 111.114 38.148 111.023 42.603C113.314 36.8024 120.388 35.3295 120.424 42.3303C120.193 46.57 120.193 50.8191 120.424 55.0589C120.642 57.6955 122.261 58.1137 125.061 58.3501Z" fill="white"/>
<path d="M141.699 59.1501C139.68 60.9685 134.971 62.2414 133.643 57.8045C133.402 56.9324 133.262 56.0356 133.225 55.1315C132.778 55.9852 132.094 56.6916 131.256 57.1658C130.417 57.64 129.459 57.8618 128.497 57.8045C126.242 57.8045 122.042 55.9862 122.042 48.0944C122.042 40.821 126.17 38.3843 129.315 38.057C129.956 37.9243 130.619 37.9431 131.251 38.112C131.883 38.2808 132.467 38.595 132.957 39.0295C133.446 39.464 133.827 40.0067 134.069 40.6145C134.311 41.2223 134.408 41.8783 134.352 42.5302C133.17 41.0028 127.443 40.3845 127.243 48.2581C127.243 50.6583 128.206 54.2951 130.643 54.1314C131.934 54.1314 132.825 52.3131 133.116 50.2765C133.204 47.9063 133.168 45.533 133.007 43.1666C134.821 43.3345 136.647 43.3345 138.462 43.1666C138.062 46.4215 136.698 58.2591 141.699 59.1501Z" fill="white"/>
<path d="M147.154 37.8388C146.807 42.1596 146.807 46.5013 147.154 50.822C147.134 51.989 147.437 53.1388 148.031 54.1436C148.625 55.1484 149.486 55.9688 150.518 56.5135C149.715 57.4837 148.571 58.1104 147.32 58.2659C146.07 58.4213 144.807 58.0937 143.79 57.35C142.336 56.2408 141.772 54.2951 141.681 51.2402C141.445 43.4031 141.681 40.5846 141.227 37.8388C143.199 38.0066 145.182 38.0066 147.154 37.8388ZM146.773 30.7654C146.773 32.4928 146.009 34.5112 144.209 34.5112C142.409 34.5112 141.608 32.2928 141.645 30.4926C141.681 28.6924 142.372 27.0195 144.172 27.0195C146.463 27.0195 146.882 29.2743 146.773 30.7654Z" fill="white"/>
<path d="M171.757 32.4383C171.247 32.51 170.763 32.7066 170.347 33.0106C169.931 33.3145 169.597 33.7164 169.374 34.1805C169.151 34.6446 169.046 35.1567 169.068 35.6712C169.09 36.1856 169.24 36.6866 169.502 37.1297C171.102 40.9119 180.012 43.9667 180.303 49.8583C180.594 55.7498 174.994 58.15 171.411 58.15C165.756 58.15 162.319 54.6406 162.629 51.0038C162.657 50.1989 162.881 49.413 163.283 48.7145C163.684 48.0161 164.249 47.4261 164.93 46.996C165.611 46.5659 166.387 46.3086 167.19 46.2465C167.993 46.1844 168.799 46.3194 169.538 46.6397C166.593 48.6945 166.865 54.8952 171.448 54.6951C171.971 54.6956 172.487 54.5793 172.959 54.3546C173.431 54.1299 173.847 53.8026 174.177 53.3965C174.506 52.9904 174.741 52.5159 174.863 52.0075C174.986 51.4991 174.993 50.9699 174.884 50.4583C174.357 46.6761 166.211 45.0032 164.683 38.5116C164.434 37.5024 164.413 36.4505 164.621 35.432C164.829 34.4136 165.261 33.4543 165.886 32.6238C166.512 31.7932 167.314 31.1123 168.235 30.6304C169.156 30.1486 170.173 29.8779 171.211 29.838C176.485 29.3107 179.43 32.7474 179.049 36.2568C179.03 36.914 178.834 37.5538 178.481 38.1084C178.128 38.663 177.631 39.1114 177.044 39.4062C176.456 39.7009 175.8 39.8309 175.144 39.7822C174.488 39.7336 173.858 39.5081 173.321 39.1299C176.266 36.275 174.266 32.2201 171.757 32.4383Z" fill="white"/>
<path d="M210.142 59.0228C206.506 62.6595 201.36 61.0412 200.814 56.1134C200.505 53.4768 200.541 49.6582 200.505 45.6396C200.469 41.621 197.414 42.0028 196.541 47.0943C196.402 50.4038 196.451 53.7185 196.686 57.0226C194.785 56.7736 192.86 56.7736 190.959 57.0226C191.389 53.1035 191.607 49.164 191.613 45.2214C191.377 40.9846 187.104 40.3299 187.031 49.8037C186.88 52.2392 187.045 54.6839 187.522 57.0771C185.567 56.8519 183.59 56.9008 181.648 57.2226C182.528 50.6817 182.528 44.0524 181.648 37.5115C183.637 37.8174 185.661 37.8174 187.649 37.5115C187.331 39.3126 187.167 41.1376 187.158 42.9666C189.449 36.1659 196.25 35.9477 196.559 41.5482C196.559 41.9301 196.559 42.312 196.559 42.7302C198.814 36.9296 205.415 35.4567 205.451 42.7302C205.451 45.676 204.996 51.822 205.687 55.4588C206.196 58.0772 207.397 58.841 210.142 59.0228Z" fill="white"/>
<path d="M214.343 37.8388C213.996 42.1596 213.996 46.5013 214.343 50.822C214.322 51.989 214.626 53.1388 215.22 54.1436C215.814 55.1484 216.675 55.9688 217.707 56.5135C216.903 57.4837 215.759 58.1104 214.509 58.2659C213.258 58.4213 211.996 58.0937 210.979 57.35C209.524 56.2408 208.961 54.2951 208.87 51.2402C208.633 43.4031 208.87 40.5846 208.415 37.8388C210.387 38.0066 212.371 38.0066 214.343 37.8388ZM213.961 30.7654C213.961 32.4928 213.197 34.5112 211.397 34.5112C209.597 34.5112 208.797 32.2928 208.833 30.4926C208.87 28.6924 209.561 27.0195 211.361 27.0195C213.652 27.0195 214.034 29.2743 213.961 30.7654Z" fill="white"/>
<path d="M223.398 26.6377C222.943 28.7834 223.089 48.0581 223.398 51.113C223.371 52.2255 223.653 53.3238 224.211 54.2865C224.769 55.2492 225.583 56.0388 226.562 56.5681C225.806 57.487 224.728 58.0819 223.548 58.2307C222.368 58.3795 221.175 58.0709 220.216 57.3682C218.834 56.2953 218.306 54.4224 218.234 51.5312C218.034 44.0395 218.234 29.3107 217.815 26.6741C219.672 26.8666 221.544 26.8544 223.398 26.6377Z" fill="white"/>
<path d="M236.345 44.3669C236.654 42.3485 236.345 39.2937 234.018 39.4028C231.69 39.5119 230.926 43.6759 230.999 47.349C231.108 53.8406 236.927 55.4408 241.237 53.4224C236.836 61.6778 225.689 57.6956 225.689 47.7309C225.689 39.6755 230.545 37.2571 234.054 37.2571C237.563 37.2571 240.818 39.0755 240.473 44.7852C240.434 45.7344 240.173 46.6613 239.71 47.4908C239.247 48.3204 238.595 49.0294 237.807 49.5604C237.02 50.0915 236.118 50.4297 235.175 50.5478C234.233 50.6659 233.275 50.5606 232.381 50.2403C233.448 49.6314 234.361 48.7849 235.049 47.7663C235.736 46.7478 236.18 45.5846 236.345 44.3669Z" fill="white"/>
<path d="M263.566 32.4383C263.056 32.51 262.572 32.7066 262.156 33.0106C261.741 33.3145 261.406 33.7164 261.183 34.1805C260.96 34.6446 260.855 35.1567 260.877 35.6712C260.9 36.1856 261.049 36.6866 261.311 37.1297C262.912 40.9119 271.822 43.9667 272.113 49.8583C272.403 55.7498 266.894 58.0773 263.257 58.0773C257.602 58.0773 254.165 54.5678 254.474 50.9311C254.51 50.1253 254.743 49.3405 255.152 48.6453C255.561 47.95 256.134 47.3653 256.821 46.9421C257.507 46.519 258.287 46.2702 259.092 46.2175C259.897 46.1648 260.703 46.3098 261.439 46.6397C258.493 48.6945 258.766 54.8952 263.348 54.6951C263.871 54.6956 264.387 54.5793 264.859 54.3546C265.332 54.1299 265.748 53.8026 266.077 53.3965C266.406 52.9904 266.641 52.5159 266.763 52.0075C266.886 51.4991 266.893 50.9699 266.785 50.4583C266.257 46.6761 258.111 45.0032 256.584 38.5116C256.334 37.5024 256.313 36.4505 256.521 35.432C256.729 34.4136 257.162 33.4543 257.787 32.6238C258.412 31.7932 259.214 31.1123 260.135 30.6304C261.056 30.1486 262.073 29.8779 263.112 29.838C268.385 29.3107 271.331 32.7474 270.949 36.2568C270.95 36.9385 270.759 37.6068 270.399 38.1853C270.038 38.7639 269.522 39.2295 268.91 39.529C268.298 39.8286 267.614 39.95 266.935 39.8794C266.257 39.8088 265.613 39.5491 265.075 39.1299C268.076 36.275 266.094 32.2201 263.566 32.4383Z" fill="white"/>
<path d="M283.059 30.0016C286.986 30.0016 290.732 32.8201 290.732 38.6389C290.732 44.985 286.259 50.1674 280.04 46.0397C284.132 45.9306 285.041 42.5302 285.277 39.2026C285.695 33.5111 283.986 32.6746 282.022 32.7837C280.058 32.8928 279.24 34.8931 279.149 37.3297C278.886 43.9361 279.165 50.553 279.986 57.1136C277.769 57.0068 275.546 57.1103 273.349 57.4227C274.413 48.9261 274.687 40.349 274.167 31.8018C276.945 30.5015 279.994 29.8843 283.059 30.0016Z" fill="white"/>
<path d="M313.08 57.55C310.678 57.0849 308.209 57.0849 305.807 57.55C306.02 55.671 306.02 53.7739 305.807 51.8949C304.243 51.6221 302.443 51.4039 300.606 51.1676C300.115 53.0768 299.661 54.8043 299.224 56.0953C298.735 57.2765 297.951 58.3131 296.949 59.1068C295.946 59.9006 294.758 60.4252 293.496 60.631C292.234 60.8367 290.94 60.7169 289.737 60.2827C288.535 59.8486 287.463 59.1145 286.623 58.1501C288.343 58.1889 290.032 57.682 291.446 56.702C292.861 55.722 293.929 54.3193 294.497 52.695C294.733 52.0404 294.951 51.4039 295.188 50.6766C292.772 50.3904 290.33 50.3904 287.914 50.6766C287.874 49.9741 287.874 49.2698 287.914 48.5673C290.631 48.0057 293.395 47.7013 296.169 47.6581C297.799 42.1099 298.787 36.3932 299.115 30.62C301.443 29.5471 307.716 30.7654 309.625 30.0017C308.844 33.3657 312.462 54.9498 313.08 57.55ZM305.625 47.9309C305.207 43.3486 304.552 38.2208 304.025 34.7113C303.461 38.4935 302.534 43.3486 301.534 47.6945C302.952 47.7672 304.334 47.8399 305.625 47.949V47.9309Z" fill="white"/>
</svg>
