<svg width="46" height="41" viewBox="0 0 46 41" fill="none" xmlns="http://www.w3.org/2000/svg">
<path d="M24.6406 27.6986C25.2803 27.9992 27.468 28.978 28.1269 29.2338C30.1142 30.1035 32.2473 30.5918 34.415 30.6731C36.9492 30.7798 39.4554 30.1103 41.5987 28.7541C43.3827 27.6425 44.8882 26.1369 45.9998 24.353C45.8928 24.216 45.7751 24.0877 45.648 23.9692C41.9506 21.0394 37.8694 20.5789 33.4939 22.0502C31.2431 22.8467 29.1383 24.0072 27.2633 25.4853C26.5533 26.0162 25.888 26.6111 25.1972 27.174L24.6406 27.6986Z" fill="#D4D626"/>
<path d="M20.8026 27.1676C20.1182 26.6046 19.4465 26.0097 18.7364 25.4788C16.8615 24.0007 14.7566 22.8402 12.5059 22.0437C8.11124 20.598 4.02363 21.0585 0.351828 23.9627C0.224666 24.0812 0.107027 24.2096 0 24.3465C1.10151 26.1423 2.60065 27.6611 4.38186 28.786C6.52516 30.1422 9.03144 30.8117 11.5656 30.705C13.7333 30.6237 15.8664 30.1354 17.8537 29.2657C18.4934 28.9843 20.8026 28.0311 21.4679 27.7305L20.8026 27.1676Z" fill="#D4D626"/>
<path d="M11.5467 33.302C10.6289 33.9173 9.80758 34.6654 9.10944 35.5218C6.77458 38.0805 7.77249 40.4473 7.77249 40.4473C7.77249 40.4473 10.6575 41.5988 15.2824 38.7522C17.9601 36.5116 20.3457 33.9434 22.383 31.1079C22.383 31.1079 17.9051 33.027 15.1481 33.4428C13.9501 33.6345 12.726 33.5866 11.5467 33.302" fill="#D4D626"/>
<path d="M22.9777 26.6878C19.8113 23.547 18.1801 19.8304 18.9477 15.3526C19.274 13.1458 20.3409 11.1156 21.9734 9.59539C22.7858 8.85335 23.2144 8.85975 24.0396 9.59539C25.4357 10.9106 26.4032 12.6159 26.8159 14.489C27.6602 17.5467 25.9907 21.2825 25.1399 23.0288C24.4906 24.2894 23.7687 25.5111 22.9777 26.6878Z" fill="#D4D626"/>
<path d="M34.4599 33.302C35.3862 33.9134 36.2162 34.6594 36.9227 35.5154C39.2575 38.0741 38.2596 40.441 38.2596 40.441C38.2596 40.441 35.3363 41.5796 30.7433 38.7522C28.0566 36.5131 25.6625 33.9449 23.6172 31.1079C23.6172 31.1079 28.095 33.027 30.8521 33.4428C32.05 33.6345 33.2741 33.5866 34.4535 33.302" fill="#D4D626"/>
<path d="M32.9955 6.45454C30.9613 3.97255 28.3258 7.59318 27.2383 9.27556C28.4966 11.1772 29.4144 13.2834 29.9506 15.4997C30.3136 16.8998 30.528 18.3342 30.5902 19.7792C31.4019 18.4746 32.0772 17.0898 32.6053 15.6469C33.7503 12.5827 34.3388 8.49514 32.9955 6.45454Z" fill="#D4D626"/>
<path d="M15.6024 17.1373C16.0328 14.3189 17.0933 11.6339 18.7049 9.28198C17.6366 7.5996 14.9947 3.96617 12.9477 6.45456C11.5979 8.49516 12.1865 12.5828 13.3059 15.6469C13.8239 17.0587 14.4818 18.4152 15.2698 19.6961C15.3348 18.8378 15.4459 17.9837 15.6024 17.1373V17.1373Z" fill="#D4D626"/>
<path d="M21.1287 6.04524C22.6128 4.68911 23.3932 4.7019 24.8964 6.04524C25.4756 6.56703 26.0124 7.13386 26.5021 7.74042C27.1865 4.19015 23.4571 0.767822 22.9198 0.767822C22.3825 0.767822 18.7043 4.83624 19.5039 7.74042C20.0053 7.13815 20.5482 6.57171 21.1287 6.04524V6.04524Z" fill="#D4D626"/>
<path d="M22.9777 26.6878C19.8113 23.547 18.1801 19.8304 18.9477 15.3526C19.274 13.1458 20.3409 11.1156 21.9734 9.59539C22.7858 8.85335 23.2144 8.85975 24.0396 9.59539C25.4357 10.9106 26.4032 12.6159 26.8159 14.489C27.8138 18.5638 27.0142 22.6386 22.9777 26.7454C23.0737 26.4895 27.4555 19.9647 25.4533 15.0647C25.1516 14.2052 24.5793 13.4667 23.8221 12.9601C23.4895 12.6974 23.0662 12.5774 22.6452 12.6266C22.2242 12.6758 21.8399 12.8901 21.5768 13.2224C21.0305 13.8187 20.6084 14.5178 20.3349 15.2789C20.0615 16.04 19.9422 16.8478 19.984 17.6555C19.984 20.8923 21.2122 23.7389 22.8178 26.4576L22.9777 26.6878Z" fill="#BEA02F"/>
<path d="M26.112 28.3445C28.3701 28.4852 30.6346 28.6963 32.8415 28.7219C34.7139 28.7735 36.5771 28.4427 38.3173 27.7496C39.4272 27.3515 40.3936 26.6323 41.0935 25.6834C41.7332 24.7622 41.6244 24.1737 40.6521 23.5852C39.5313 22.9564 38.2485 22.6758 36.9675 22.7792C33.9418 22.8943 31.2103 23.9818 28.562 25.338C27.4426 25.9265 26.3551 26.5789 25.1973 27.1483C25.8817 26.5853 26.5534 25.9904 27.2635 25.4595C29.1384 23.9814 31.2433 22.8209 33.494 22.0244C37.8887 20.5787 41.9763 21.0393 45.6481 23.9434C45.7753 24.0619 45.8929 24.1903 45.9999 24.3272C44.8952 26.1321 43.3892 27.6579 41.5989 28.7859C39.4556 30.1421 36.9493 30.8116 34.4152 30.7049C32.2474 30.6236 30.1143 30.1353 28.127 29.2656C27.4682 28.9522 26.7709 28.6451 26.112 28.3445Z" fill="#BEA02F"/>
<path d="M20.03 28.2997C17.7719 28.4404 15.3475 28.6963 13.1406 28.7219C11.2682 28.7735 9.40501 28.4427 7.66487 27.7496C6.56433 27.3471 5.60733 26.6283 4.91421 25.6834C4.27453 24.7622 4.38328 24.1737 5.3556 23.5852C6.47643 22.9564 7.7592 22.6758 9.0402 22.7792C12.0659 22.8943 14.7974 23.9818 17.4457 25.338C18.5651 25.9265 19.6526 26.5789 20.8105 27.1483C20.126 26.5853 19.4543 25.9904 18.7443 25.4595C16.8693 23.9814 14.7645 22.8209 12.5137 22.0244C8.11905 20.5787 4.03145 21.0393 0.35964 23.9434C0.232479 24.0619 0.11484 24.1903 0.0078125 24.3272C1.10518 26.1293 2.60224 27.6548 4.38328 28.7859C6.52657 30.1421 9.03286 30.8116 11.567 30.7049C13.7347 30.6236 15.8678 30.1353 17.8551 29.2656C18.5076 28.9522 19.3456 28.6004 20.03 28.2997Z" fill="#BEA02F"/>
<path d="M11.547 33.3022C11.483 33.5709 10.2676 36.5902 12.3914 36.232C16.3894 35.5923 22.3897 31.1145 22.3897 31.1145C22.3897 31.1145 19.6006 36.1105 15.4363 38.8931C10.8113 41.7397 7.50415 40.7034 7.50415 40.7034C7.28184 39.7727 7.29963 38.8007 7.55586 37.8787C7.8121 36.9567 8.29836 36.115 8.96904 35.4324C9.71935 34.5999 10.5879 33.8822 11.547 33.3022Z" fill="#BEA02F"/>
<path d="M34.4599 33.3022C34.5239 33.5709 35.7393 36.5902 33.6155 36.232C29.6175 35.5923 23.6172 31.1145 23.6172 31.1145C23.6172 31.1145 26.3806 36.1105 30.5642 38.8931C35.1891 41.7397 38.4963 40.7034 38.4963 40.7034C38.7186 39.7727 38.7008 38.8007 38.4446 37.8787C38.1884 36.9567 37.7021 36.115 37.0314 35.4324C36.2831 34.6004 35.4167 33.8827 34.4599 33.3022V33.3022Z" fill="#BEA02F"/>
<path d="M16.5991 8.16866C15.4285 7.86801 14.68 8.34138 14.3026 9.49282C13.471 12.1027 14.8975 17.5465 15.3069 19.6894C14.5042 18.4167 13.8455 17.0586 13.3431 15.6402C12.23 12.5761 11.6351 8.48851 12.9849 6.4479C15.4093 3.55012 18.4158 8.78916 18.742 9.27532C18.1084 8.7677 17.3799 8.39148 16.5991 8.16866Z" fill="#BEA02F"/>
<path d="M29.3798 8.16872C30.5504 7.86807 31.2989 8.34143 31.6763 9.49287C32.5079 12.1028 31.0366 17.6361 30.6144 19.779C31.4357 18.4797 32.1114 17.0939 32.6294 15.6467C33.7425 12.5826 34.3374 8.49496 32.9877 6.45436C30.4929 3.40944 27.5631 8.78922 27.2305 9.27538C27.8661 8.76714 28.5969 8.39091 29.3798 8.16872V8.16872Z" fill="#BEA02F"/>
<path d="M22.991 2.97455C24.2704 2.97455 25.7033 4.41384 26.5796 6.59518C26.3174 2.89139 24.2 0 22.991 0C21.782 0 19.6646 2.89139 19.4023 6.59518C20.2723 4.41384 21.7052 2.97455 22.991 2.97455Z" fill="#BEA02F"/>
</svg>
